<?xml version="1.0" encoding="UTF-8"?>
<svg width="48px" height="32px" viewBox="0 0 48 32" version="1.1" xmlns="http://www.w3.org/2000/svg" xmlns:xlink="http://www.w3.org/1999/xlink">
    <!-- Generator: Sketch 52.2 (67145) - http://www.bohemiancoding.com/sketch -->
    <title>Slice</title>
    <desc>Created with Sketch.</desc>
    <g id="Page-1" stroke="none" stroke-width="1" fill="none" fill-rule="evenodd">
        <path d="M38.7,12.08 C43.9,12.44 48,16.72 48,22 C48,27.52 43.52,32 38,32 L12,32 C5.38,32 0,26.62 0,20 C0,13.82 4.68,8.72 10.7,8.08 C13.2,3.28 18.22,0 24,0 C31.28,0 37.34,5.18 38.7,12.08 Z M16,25.9996418 L23.272597,25.9996418 L23.272597,18.7269652 L16,18.7269652 L16,25.9996418 Z M17.454408,20.1816119 L21.8180299,20.1816119 L21.8180299,24.5339303 L17.454408,24.5339303 L17.454408,20.1816119 Z M18.9090149,21.6360199 L18.9090149,23.0907065 L20.3635025,23.0907065 L20.3635025,21.6360199 L18.9090149,21.6360199 Z M27.6359005,24.5452338 L27.6359005,25.9997612 L29.0907463,25.9997612 L29.0907463,24.5452338 L27.6359005,24.5452338 Z M30.5449552,24.5452338 L30.5449552,25.9997612 L31.9997612,25.9997612 L31.9997612,24.5452338 L30.5449552,24.5452338 Z M30.5451144,20.1816119 L29.0907065,20.1816119 L29.0907065,18.7269652 L24.7269652,18.7269652 L24.7269652,25.9996418 L26.1816119,25.9996418 L26.1816119,21.6360199 L27.6359005,21.6360199 L27.6359005,23.0907065 L31.9996418,23.0907065 L31.9996418,18.7269652 L30.5451144,18.7269652 L30.5451144,20.1816119 Z M16,17.2727562 L23.272597,17.2727562 L23.272597,10 L16,10 L16,17.2727562 Z M17.454408,11.454408 L21.8180299,11.454408 L21.8180299,15.8180299 L17.454408,15.8180299 L17.454408,11.454408 Z M18.9090149,12.9090149 L18.9090149,14.3636219 L20.3635025,14.3636219 L20.3635025,12.9090149 L18.9090149,12.9090149 Z M24.7269652,10 L24.7269652,17.2727562 L31.9997612,17.2727562 L31.9997612,10 L24.7269652,10 Z M30.5451144,15.8180299 L26.1816119,15.8180299 L26.1816119,11.454408 L30.5451144,11.454408 L30.5451144,15.8180299 Z M27.6359005,12.9066666 L27.6359005,14.3612736 L29.0907463,14.3612736 L29.0907463,12.9066666 L27.6359005,12.9066666 Z M21.25,8.375 L21.25,7 L13,7 L13,15.25 L14.375,15.25 L14.375,8.375 L21.25,8.375 Z M21.25,27.625 L14.375,27.625 L14.375,20.75 L13,20.75 L13,29 L21.25,29 L21.25,27.625 Z M26.75,8.375 L33.625,8.375 L33.625,15.25 L35,15.25 L35,7 L26.75,7 L26.75,8.375 Z M26.75,27.625 L26.75,29 L35,29 L35,20.75 L33.625,20.75 L33.625,27.625 L26.75,27.625 Z" id="Combined-Shape" fill="#FFFFFF" fill-rule="nonzero"></path>
        <g id="qr-code" transform="translate(16.000000, 10.000000)"></g>
    </g>
</svg>